<svg width="48" height="47" viewBox="0 0 48 47" fill="none" xmlns="http://www.w3.org/2000/svg">
<path d="M34.4948 9.4995L46.5298 25.4357C46.8532 25.8639 46.9876 26.3989 46.9035 26.9231C46.8193 27.4472 46.5235 27.9175 46.0811 28.2306L21.894 45.3445C21.4516 45.6575 20.8989 45.7876 20.3574 45.7062C19.8159 45.6247 19.33 45.3384 19.0066 44.9102L6.97161 28.974M16.8496 14.0942C6.64525 10.3223 2.60923 10.6784 2.36989 15.6687C2.12032 20.8793 9.99796 18.9422 16.8496 14.0942ZM16.8496 14.0942L10.8967 15.025M16.8496 14.0942C16.2333 3.5381 17.8087 -0.0762603 22.7938 1.21746C27.9988 2.5686 23.7012 9.24625 16.8496 14.0942ZM16.8496 14.0942L19.5724 8.88637M1.4199 25.0117L32.2792 3.1767L36.1623 8.31842L5.30293 30.1534L1.4199 25.0117Z" stroke="white" stroke-opacity="0.3" stroke-linecap="round" stroke-linejoin="round"/>
</svg>
