<svg width="63" height="52" viewBox="0 0 63 52" fill="none" xmlns="http://www.w3.org/2000/svg">
<path d="M57.852 3.64558C54.0526 0.705234 48.9322 -0.553635 43.9449 0.226369C38.7746 1.03812 34.2461 3.74978 31.5001 7.67841C28.754 3.74978 24.2255 1.03812 19.0553 0.226369C14.0681 -0.552448 8.94818 0.706313 5.14816 3.64558C0.57869 7.32026 -1.05275 13.5306 0.672087 20.6857C0.678486 20.7126 0.699036 20.7326 0.708019 20.7584C0.751949 20.8751 0.81926 20.9839 0.906874 21.0798C0.926685 21.1008 0.934807 21.1267 0.957326 21.1465C0.986366 21.1655 1.01651 21.1831 1.04777 21.1992C1.1013 21.2378 1.15913 21.2716 1.22041 21.2999C1.33744 21.3538 1.46529 21.3874 1.59684 21.3989C1.63166 21.4019 1.66476 21.4165 1.69958 21.4165C1.73712 21.4118 1.7744 21.4055 1.81107 21.3974C1.84639 21.3988 1.8817 21.3986 1.9169 21.3966C1.94766 21.3909 1.97043 21.373 2.00008 21.3651C2.06653 21.3467 2.13064 21.3224 2.19131 21.2925C2.25394 21.2638 2.31301 21.2294 2.36752 21.1897C2.3909 21.1726 2.41994 21.1657 2.44184 21.1465L6.13554 17.9063L6.14785 17.8991C6.95754 17.1866 8.26942 17.177 9.09264 17.8774C9.91587 18.5779 9.94528 19.7288 9.15848 20.4608L3.10018 25.7767C2.83389 26.009 2.7293 26.3484 2.82577 26.6668C2.92225 26.9853 3.20527 27.2342 3.56778 27.3198C3.9303 27.4053 4.31743 27.3145 4.58298 27.0815L10.5749 21.8239C10.5832 21.817 10.5941 21.815 10.6024 21.8079C10.618 21.7942 10.628 21.7777 10.6434 21.7638L14.285 18.5685C14.2942 18.5609 14.3065 18.5586 14.3155 18.5508C15.1455 17.8525 16.4552 17.8525 17.2852 18.5508C18.0991 19.2674 18.1032 20.4256 17.2944 21.1467L17.2821 21.1538L6.1017 30.9651C5.83652 31.1979 5.73291 31.537 5.83 31.855C5.92709 32.173 6.21011 32.4212 6.57238 32.5064C6.93465 32.5916 7.32129 32.5007 7.58659 32.268L17.2924 23.7615L17.3178 23.7391C18.1475 23.0389 19.4653 23.0561 20.2711 23.7776C21.0768 24.499 21.0696 25.6554 20.255 26.3692L18.029 28.3226L18.0278 28.3235L18.0273 28.324L9.9144 35.4431C9.64909 35.6759 9.5456 36.015 9.64269 36.333C9.73978 36.6509 10.0228 36.8992 10.3851 36.9844C10.7473 37.0696 11.134 36.9787 11.3993 36.746L19.5139 29.6252C20.3342 28.9057 21.6639 28.906 22.4839 29.6258C23.304 30.3455 23.3037 31.5123 22.4833 32.2318C22.4789 32.2357 22.4777 32.2412 22.4732 32.2452L14.3352 39.386C14.3299 39.3906 14.3286 39.397 14.3234 39.4016C14.318 39.4065 14.3106 39.4081 14.3054 39.413C14.267 39.458 14.2338 39.506 14.206 39.5567C14.1653 39.6044 14.13 39.6556 14.1004 39.7092C14.081 39.7663 14.0679 39.8248 14.0617 39.8839C14.019 39.9953 14.0218 40.1162 14.0694 40.226C14.0785 40.2851 14.0943 40.3433 14.1163 40.3996C14.149 40.4535 14.1876 40.5045 14.2316 40.5519C14.2611 40.6002 14.2958 40.6461 14.3353 40.6888C14.3406 40.6934 14.3479 40.6947 14.3532 40.6991C14.3587 40.7038 14.3606 40.7103 14.3661 40.7148C19.4944 44.7568 25.0481 48.3628 30.9527 51.4843C31.289 51.6643 31.7117 51.6643 32.0479 51.4843C37.9524 48.3628 43.5062 44.7568 48.6344 40.7148C48.6401 40.7103 48.6418 40.7038 48.6474 40.6991C48.6526 40.6946 48.6599 40.6933 48.6652 40.6888C48.7046 40.6461 48.7393 40.6002 48.7689 40.5519C48.8129 40.5046 48.8515 40.4535 48.8842 40.3996C48.9177 40.2861 48.946 40.1715 48.9688 40.0559C48.965 39.9979 48.955 39.9403 48.9387 39.8839C48.9325 39.8247 48.9196 39.7661 48.9 39.7092C48.8705 39.6556 48.835 39.6044 48.7944 39.5567C48.7666 39.506 48.7332 39.458 48.6949 39.413C48.6897 39.408 48.6823 39.4065 48.6769 39.4016C48.6717 39.397 48.6704 39.3906 48.6651 39.386L40.5271 32.2452C40.5226 32.2412 40.5214 32.2358 40.517 32.2318C39.6967 31.5123 39.6964 30.3455 40.5163 29.6258C41.3364 28.906 42.6661 28.9058 43.4864 29.6252L51.601 36.746C52.011 37.1058 52.6758 37.1058 53.0859 36.746C53.4959 36.3862 53.4959 35.8028 53.0859 35.4431L44.9731 28.3237L44.9726 28.3232L44.9714 28.3223L42.7455 26.3687C42.2147 25.9032 42.0075 25.2247 42.2016 24.5888C42.3956 23.9528 42.9617 23.4559 43.6865 23.2854C44.4112 23.1149 45.1846 23.2966 45.7152 23.7621L45.7278 23.7695L55.414 32.2678C55.8246 32.6244 56.4865 32.623 56.895 32.2644C57.3036 31.906 57.3053 31.3252 56.8987 30.9649L47.2081 22.4699L47.2 22.4592C47.1934 22.4533 47.1851 22.4495 47.1783 22.4436L45.7182 21.1536L45.7151 21.1517C44.8959 20.4326 44.8961 19.2671 45.7156 18.5483C46.5351 17.8295 47.8635 17.8296 48.6827 18.5487C48.6917 18.5566 48.704 18.559 48.7131 18.5665L52.2553 21.6747C52.2976 21.7189 52.3424 21.7599 52.3983 21.809L52.3998 21.8105L52.4 21.8106L52.4007 21.8114L58.4171 27.0814C58.6825 27.3144 59.0696 27.4053 59.4323 27.3197C59.7949 27.2341 60.0778 26.9851 60.1743 26.6667C60.2708 26.3483 60.1662 26.009 59.8999 25.7766L53.8743 20.5012C53.8561 20.4807 53.8354 20.4619 53.8156 20.4426L53.8107 20.4355C53.0542 19.7085 53.0868 18.5869 53.8845 17.8946C54.7141 17.1982 56.0216 17.1982 56.8511 17.8946L60.5581 21.1465C60.58 21.1657 60.6091 21.1726 60.6324 21.1897C60.742 21.2669 60.8665 21.3263 61 21.365C61.0296 21.3729 61.0524 21.3908 61.0831 21.3965C61.1543 21.4095 61.2268 21.4161 61.2994 21.4161L61.3005 21.4163H61.3008H61.3014C61.4291 21.4152 61.5553 21.3936 61.6739 21.3525C61.7065 21.3384 61.7383 21.3229 61.7691 21.3059C61.8532 21.2702 61.9314 21.2246 62.0016 21.1705C62.0142 21.1605 62.0307 21.157 62.0428 21.1465C62.065 21.127 62.073 21.1013 62.0927 21.0806C62.1468 21.0252 62.1931 20.9641 62.2303 20.8988C62.2539 20.8571 62.2738 20.8138 62.2896 20.7694C62.304 20.7421 62.3168 20.7142 62.3278 20.6858C64.0528 13.5306 62.4214 7.32026 57.852 3.64558ZM60.6137 18.5897L58.336 16.5917C56.675 15.2001 54.0607 15.2001 52.3996 16.5917C51.8805 17.0509 51.5076 17.6215 51.3181 18.2467L50.1774 17.2458C50.1613 17.2315 50.1395 17.2268 50.1224 17.2137C48.6678 15.9629 46.3981 15.8131 44.7466 16.8588C43.0951 17.9045 42.5418 19.8418 43.4362 21.4473C41.9893 21.6892 40.7943 22.5813 40.2904 23.7956C39.7865 25.0099 40.0479 26.3674 40.9787 27.369C40.2427 27.5252 39.5695 27.8551 39.0318 28.3229C37.4041 29.7563 37.3958 32.0727 39.0135 33.5148C39.0212 33.5221 39.0236 33.5318 39.0318 33.539L46.3931 39.9982C41.7511 43.5717 36.7684 46.7895 31.5 49.6163C26.2315 46.7894 21.2489 43.5717 16.6068 39.9982L23.9681 33.539C23.9763 33.5318 23.9786 33.5221 23.9864 33.5148C25.6041 32.0726 25.5959 29.7563 23.9681 28.3229C23.43 27.8555 22.7568 27.5258 22.0209 27.3693C22.9513 26.3682 23.213 25.0114 22.71 23.7973C22.207 22.5833 21.0133 21.6907 19.5673 21.4476C20.3459 20.0411 20.0261 18.3566 18.7701 17.2475C17.1274 15.8694 14.5451 15.8538 12.881 17.2119C12.8625 17.226 12.839 17.2312 12.8215 17.2466L11.6721 18.2552C11.4897 17.6287 11.1204 17.0561 10.6024 16.5961C8.97205 15.1684 6.33538 15.1591 4.692 16.5753C4.68351 16.5823 4.67231 16.5843 4.66407 16.5916L2.38622 18.5896C1.4381 12.8296 2.91646 7.9395 6.56721 5.00411C9.90529 2.4705 14.3624 1.38396 18.7116 2.04379C23.6491 2.76268 27.8637 5.55834 30.578 9.91693C30.7786 10.1935 31.1264 10.361 31.5 10.361C31.8736 10.361 32.2213 10.1936 32.4219 9.91693C35.1363 5.55834 39.3508 2.76279 44.2883 2.04379C48.6374 1.38417 53.0944 2.47061 56.4327 5.00411C60.0835 7.9396 61.562 12.8297 60.6137 18.5897Z" fill="#26508E"/>
</svg>
