<svg width="24" height="24" viewBox="0 0 24 24" fill="none" xmlns="http://www.w3.org/2000/svg">
<path d="M18.3158 18.2105H6.68421L4 20.8947V5.68421C4 4.20789 5.20789 3 6.68421 3H18.3158C19.7921 3 21 4.20789 21 5.68421V15.5263C21 17.0026 19.7921 18.2105 18.3158 18.2105Z" fill="#26508E"/>
<path d="M11.6047 9.26172H13.3942V14.1828H11.6047V9.26172Z" fill="white"/>
<path d="M12.4993 7.92033C12.9935 7.92033 13.3941 7.51975 13.3941 7.0256C13.3941 6.53145 12.9935 6.13086 12.4993 6.13086C12.0052 6.13086 11.6046 6.53145 11.6046 7.0256C11.6046 7.51975 12.0052 7.92033 12.4993 7.92033Z" fill="white"/>
</svg>
