<svg width="37" height="37" viewBox="0 0 37 37" fill="none" xmlns="http://www.w3.org/2000/svg">
<path d="M5.5498 12.8472C5.5498 13.6951 6.24356 14.3889 7.09147 14.3889C7.93939 14.3889 8.63314 13.6951 8.63314 12.8472V9.76388H11.7165C12.5644 9.76388 13.2581 9.07013 13.2581 8.22221C13.2581 7.37429 12.5644 6.68054 11.7165 6.68054H8.63314V3.59721C8.63314 2.74929 7.93939 2.05554 7.09147 2.05554C6.24356 2.05554 5.5498 2.74929 5.5498 3.59721V6.68054H2.46647C1.61855 6.68054 0.924805 7.37429 0.924805 8.22221C0.924805 9.07013 1.61855 9.76388 2.46647 9.76388H5.5498V12.8472Z" fill="#26508E"/>
<path d="M21 26C23.2091 26 25 24.2091 25 22C25 19.7909 23.2091 18 21 18C18.7909 18 17 19.7909 17 22C17 24.2091 18.7909 26 21 26Z" fill="#26508E"/>
<path d="M33.2998 9.76388H28.4127L26.5011 7.68263C26.2138 7.36719 25.8638 7.11515 25.4736 6.9426C25.0834 6.77006 24.6615 6.6808 24.2348 6.68054H14.3681C14.6302 7.14304 14.7998 7.65179 14.7998 8.22221C14.7998 9.91804 13.4123 11.3055 11.7165 11.3055H10.1748V12.8472C10.1748 14.543 8.7873 15.9305 7.09147 15.9305C6.52105 15.9305 6.0123 15.761 5.5498 15.4989V31.3472C5.5498 33.043 6.9373 34.4305 8.63314 34.4305H33.2998C34.9956 34.4305 36.3831 33.043 36.3831 31.3472V12.8472C36.3831 11.1514 34.9956 9.76388 33.2998 9.76388ZM20.9665 29.8055C16.7115 29.8055 13.2581 26.3522 13.2581 22.0972C13.2581 17.8422 16.7115 14.3889 20.9665 14.3889C25.2215 14.3889 28.6748 17.8422 28.6748 22.0972C28.6748 26.3522 25.2215 29.8055 20.9665 29.8055Z" fill="#26508E"/>
</svg>
