<svg width="24" height="24" viewBox="0 0 24 24" fill="none" xmlns="http://www.w3.org/2000/svg">
<path d="M6.623 4.50781C5.152 4.53481 4.305 4.65881 3.733 5.23281C3 5.96481 3 7.14281 3 9.49981V14.4998C3 16.8568 3 18.0358 3.732 18.7678C4.305 19.3408 5.152 19.4658 6.623 19.4928C6.5 18.5748 6.5 17.4288 6.5 16.0988V7.90181C6.5 6.57181 6.5 5.42481 6.623 4.50781Z" fill="#26508E"/>
<path fill-rule="evenodd" clip-rule="evenodd" d="M8.879 2.879C8 3.757 8 5.172 8 8V16C8 18.828 8 20.243 8.879 21.121C9.757 22 11.172 22 14 22H15C17.828 22 19.243 22 20.121 21.121C21 20.243 21 18.828 21 16V8C21 5.172 21 3.757 20.121 2.879C19.243 2 17.828 2 15 2H14C11.172 2 9.757 2 8.879 2.879ZM15.03 7.469C14.8894 7.32855 14.6988 7.24966 14.5 7.24966C14.3012 7.24966 14.1106 7.32855 13.97 7.469L11.47 9.969C11.3983 10.0382 11.3412 10.1209 11.3018 10.2124C11.2625 10.3039 11.2417 10.4023 11.2408 10.5018C11.2399 10.6014 11.2588 10.7002 11.2965 10.7924C11.3342 10.8846 11.3898 10.9683 11.4602 11.0388C11.5306 11.1092 11.6143 11.165 11.7065 11.2027C11.7986 11.2405 11.8974 11.2595 11.9969 11.2587C12.0965 11.2579 12.195 11.2372 12.2865 11.198C12.378 11.1587 12.4608 11.1016 12.53 11.03L13.75 9.81V16C13.75 16.1989 13.829 16.3897 13.9697 16.5303C14.1103 16.671 14.3011 16.75 14.5 16.75C14.6989 16.75 14.8897 16.671 15.0303 16.5303C15.171 16.3897 15.25 16.1989 15.25 16V9.81L16.47 11.03C16.5387 11.1037 16.6215 11.1628 16.7135 11.2038C16.8055 11.2448 16.9048 11.2668 17.0055 11.2686C17.1062 11.2704 17.2062 11.2518 17.2996 11.2141C17.393 11.1764 17.4778 11.1203 17.549 11.049C17.6203 10.9778 17.6764 10.893 17.7141 10.7996C17.7518 10.7062 17.7704 10.6062 17.7686 10.5055C17.7668 10.4048 17.7448 10.3055 17.7038 10.2135C17.6628 10.1215 17.6037 10.0387 17.53 9.97L15.03 7.469Z" fill="#26508E"/>
</svg>
