<svg width="15" height="41" viewBox="0 0 15 41" fill="none" xmlns="http://www.w3.org/2000/svg">
<path d="M7.5 0C10.2614 0 12.5 2.29456 12.5 5.125C12.5 7.95544 10.2614 10.25 7.5 10.25C4.73859 10.25 2.5 7.95544 2.5 5.125C2.5 2.29456 4.73859 0 7.5 0ZM11.25 11.5312H10.3625C8.5882 12.3675 6.48828 12.4036 4.6375 11.5312H3.75C1.67891 11.5312 0 13.2521 0 15.375V26.2656C0 27.3271 0.839453 28.1875 1.875 28.1875H3.125V39.0781C3.125 40.1396 3.96445 41 5 41H10C11.0355 41 11.875 40.1396 11.875 39.0781V28.1875H13.125C14.1605 28.1875 15 27.3271 15 26.2656V15.375C15 13.2521 13.3211 11.5312 11.25 11.5312Z" fill="#26508E"/>
</svg>
