<svg width="27" height="27" viewBox="0 0 27 27" fill="none" xmlns="http://www.w3.org/2000/svg">
<path d="M19.2195 8.39682L18.1319 9.1921L13.5011 12.413L8.87022 9.16029L7.78261 8.36501C7.52639 8.16662 7.21361 8.04295 6.88303 8.00932C6.55244 7.97568 6.21858 8.03357 5.9228 8.17579C5.62703 8.31802 5.38233 8.53835 5.21903 8.80947C5.05573 9.08059 4.981 9.3906 5.00411 9.70108V18.9184C5.00411 19.2053 5.12586 19.4804 5.34257 19.6832C5.55928 19.886 5.85321 20 6.15969 20H8.87022V13.8604L13.5011 17.1131L18.1319 13.8604V20H20.8424C21.1489 20 21.4428 19.886 21.6595 19.6832C21.8763 19.4804 21.998 19.2053 21.998 18.9184V9.70108C22.014 9.39328 21.934 9.08776 21.7679 8.82168C21.6019 8.55559 21.3568 8.34039 21.0625 8.20224C20.7681 8.06408 20.4373 8.00892 20.1101 8.04347C19.7829 8.07801 19.4735 8.20077 19.2195 8.39682Z" fill="#26508E"/>
</svg>
