<svg width="23" height="22" viewBox="0 0 23 22" fill="none" xmlns="http://www.w3.org/2000/svg">
<path d="M21.0927 0.916992H2.17336C1.52533 0.916992 1 1.41948 1 2.03934V20.1361C1 20.7559 1.52533 21.2584 2.17336 21.2584H21.0927C21.7407 21.2584 22.266 20.7559 22.266 20.1361V2.03934C22.266 1.41948 21.7407 0.916992 21.0927 0.916992Z" fill="#3D5A98"/>
<path d="M13.0842 20.9356V13.0585H15.8478L16.2611 9.98886H13.0842V8.02949C13.0842 7.14089 13.343 6.53417 14.6745 6.53417H16.3743V3.78417C15.5512 3.70212 14.724 3.6631 13.8964 3.6673C11.4491 3.6673 9.7636 5.09386 9.7636 7.72527V9.98886H7V13.0585H9.7636V20.9356H13.0842Z" fill="white"/>
</svg>
