<svg width="30" height="41" viewBox="0 0 30 41" fill="none" xmlns="http://www.w3.org/2000/svg">
<path d="M30 23.8545C30 24.4758 29.7812 25.0038 29.3438 25.4386C28.9062 25.8735 28.375 26.0909 27.75 26.0909C26.9531 26.0909 26.3281 25.757 25.875 25.0892L20.5547 17.1455H19.5V20.2205L25.2891 29.7949C25.4297 30.0278 25.5 30.2841 25.5 30.5636C25.5 30.9674 25.3516 31.3169 25.0547 31.6119C24.7578 31.907 24.4062 32.0545 24 32.0545H19.5V38.3909C19.5 39.1053 19.2422 39.7188 18.7266 40.2313C18.2109 40.7438 17.5938 41 16.875 41H13.125C12.4062 41 11.7891 40.7438 11.2734 40.2313C10.7578 39.7188 10.5 39.1053 10.5 38.3909V32.0545H6C5.59375 32.0545 5.24219 31.907 4.94531 31.6119C4.64844 31.3169 4.5 30.9674 4.5 30.5636C4.5 30.2841 4.57031 30.0278 4.71094 29.7949L10.5 20.2205V17.1455H9.44531L4.125 25.0892C3.67188 25.757 3.04688 26.0909 2.25 26.0909C1.625 26.0909 1.09375 25.8735 0.65625 25.4386C0.21875 25.0038 0 24.4758 0 23.8545C0 23.4042 0.125 22.9926 0.375 22.6199L6.375 13.6744C7.51562 12.0127 8.89062 11.1818 10.5 11.1818H19.5C21.1094 11.1818 22.4844 12.0127 23.625 13.6744L29.625 22.6199C29.875 22.9926 30 23.4042 30 23.8545ZM20.25 5.21818C20.25 6.6625 19.7383 7.89328 18.7148 8.91051C17.6914 9.92775 16.4531 10.4364 15 10.4364C13.5469 10.4364 12.3086 9.92775 11.2852 8.91051C10.2617 7.89328 9.75 6.6625 9.75 5.21818C9.75 3.77386 10.2617 2.54309 11.2852 1.52585C12.3086 0.508617 13.5469 0 15 0C16.4531 0 17.6914 0.508617 18.7148 1.52585C19.7383 2.54309 20.25 3.77386 20.25 5.21818Z" fill="#26508E"/>
</svg>
