<svg width="27" height="27" viewBox="0 0 27 27" fill="none" xmlns="http://www.w3.org/2000/svg">
<path d="M20 10.65C20 9.77671 19.8319 8.91197 19.5052 8.10516C19.1786 7.29834 18.6998 6.56525 18.0962 5.94774C17.4926 5.33023 16.7761 4.84039 15.9874 4.5062C15.1988 4.17201 14.3536 4 13.5 4C12.6464 4 11.8012 4.17201 11.0126 4.5062C10.2239 4.84039 9.50739 5.33023 8.90381 5.94774C8.30023 6.56525 7.82144 7.29834 7.49478 8.10516C7.16813 8.91197 7 9.77671 7 10.65C7 11.9676 7.37979 13.1932 8.02607 14.2268H8.01864L13.5 23L18.9814 14.2268H18.9749C19.6442 13.1595 20 11.9181 20 10.65ZM13.5 13.5C12.7612 13.5 12.0526 13.1997 11.5302 12.6653C11.0078 12.1308 10.7143 11.4059 10.7143 10.65C10.7143 9.89413 11.0078 9.16922 11.5302 8.63475C12.0526 8.10027 12.7612 7.8 13.5 7.8C14.2388 7.8 14.9474 8.10027 15.4698 8.63475C15.9922 9.16922 16.2857 9.89413 16.2857 10.65C16.2857 11.4059 15.9922 12.1308 15.4698 12.6653C14.9474 13.1997 14.2388 13.5 13.5 13.5Z" fill="#26508E"/>
</svg>
