<svg width="86" height="71" viewBox="0 0 86 71" fill="none" xmlns="http://www.w3.org/2000/svg">
<path d="M78.9726 4.97651C73.7861 0.9627 66.7964 -0.755756 59.9882 0.309012C52.9305 1.41711 46.7487 5.11875 43.0001 10.4816C39.2515 5.11875 33.0698 1.41711 26.012 0.309012C19.204 -0.754135 12.215 0.964174 7.02765 4.97651C0.789958 9.99274 -1.43709 18.4704 0.917453 28.2377C0.926188 28.2744 0.95424 28.3016 0.966502 28.3369C1.02647 28.4962 1.11835 28.6448 1.23795 28.7756C1.265 28.8042 1.27609 28.8396 1.30683 28.8666C1.34647 28.8925 1.38762 28.9166 1.43029 28.9387C1.50336 28.9913 1.58231 29.0374 1.66596 29.076C1.82571 29.1496 2.00024 29.1956 2.17981 29.2112C2.22734 29.2153 2.27253 29.2352 2.32007 29.2352C2.3713 29.2289 2.4222 29.2202 2.47226 29.2091C2.52047 29.211 2.56868 29.2108 2.61672 29.2081C2.65871 29.2003 2.68979 29.1758 2.73027 29.1651C2.82098 29.14 2.90849 29.1068 2.99131 29.066C3.07681 29.0268 3.15744 28.9798 3.23185 28.9257C3.26377 28.9023 3.30341 28.8928 3.33331 28.8666L8.3755 24.4435L8.3923 24.4337C9.4976 23.4611 11.2884 23.448 12.4122 24.4041C13.536 25.3603 13.5761 26.9313 12.502 27.9306L4.23199 35.1873C3.86849 35.5043 3.72571 35.9677 3.8574 36.4024C3.9891 36.837 4.37545 37.1769 4.87031 37.2936C5.36517 37.4104 5.89363 37.2864 6.25613 36.9684L14.4356 29.7913C14.4469 29.7819 14.4618 29.7792 14.4731 29.7695C14.4944 29.7508 14.508 29.7283 14.529 29.7094L19.5002 25.3474C19.5128 25.3371 19.5296 25.334 19.5418 25.3233C20.6748 24.3701 22.4626 24.3701 23.5956 25.3233C24.7066 26.3015 24.7124 27.8826 23.6082 28.8669L23.5914 28.8766L8.32931 42.2698C7.96732 42.5876 7.82588 43.0505 7.95841 43.4846C8.09095 43.9187 8.4773 44.2575 8.97182 44.3738C9.46635 44.4901 9.99414 44.366 10.3563 44.0484L23.6056 32.4363L23.6402 32.4058C24.7728 31.4499 26.5717 31.4734 27.6716 32.4583C28.7715 33.4431 28.7616 35.0217 27.6496 35.996L24.6111 38.6626L24.6094 38.6638L13.5339 48.3826C13.1718 48.7004 13.0305 49.1634 13.163 49.5974C13.2956 50.0314 13.6819 50.3704 14.1765 50.4867C14.671 50.603 15.1988 50.4789 15.5609 50.1612L26.6381 40.4408C27.7578 39.4586 29.573 39.459 30.6924 40.4415C31.8118 41.424 31.8114 43.0168 30.6915 43.999C30.6855 44.0043 30.6838 44.0118 30.6778 44.0173L19.5687 53.765C19.5615 53.7713 19.5596 53.78 19.5526 53.7864C19.5452 53.793 19.5351 53.7952 19.5281 53.8018C19.4757 53.8633 19.4303 53.9289 19.3923 53.998C19.3367 54.0632 19.2885 54.133 19.2482 54.2063C19.2217 54.2841 19.2039 54.364 19.1953 54.4448C19.137 54.5967 19.1409 54.7618 19.2059 54.9117C19.2183 54.9923 19.2398 55.0718 19.2699 55.1487C19.3146 55.2223 19.3671 55.2918 19.4273 55.3565C19.4676 55.4226 19.515 55.4852 19.5689 55.5434C19.5761 55.5498 19.586 55.5515 19.5932 55.5576C19.6008 55.5639 19.6033 55.5728 19.6109 55.5789C26.6114 61.0966 34.1927 66.0191 42.2529 70.2802C42.712 70.5259 43.289 70.5259 43.748 70.2802C51.808 66.0191 59.3894 61.0966 66.3899 55.5789C66.3976 55.5728 66.3999 55.5639 66.4075 55.5576C66.4147 55.5514 66.4246 55.5496 66.4319 55.5434C66.4856 55.4852 66.533 55.4226 66.5735 55.3565C66.6334 55.292 66.6862 55.2223 66.7309 55.1487C66.7765 54.9938 66.8152 54.8373 66.8463 54.6796C66.8411 54.6003 66.8274 54.5217 66.8053 54.4448C66.7967 54.3638 66.7791 54.284 66.7524 54.2063C66.712 54.133 66.6637 54.0632 66.6082 53.998C66.5703 53.9289 66.5248 53.8633 66.4723 53.8018C66.4653 53.795 66.4552 53.793 66.4478 53.7864C66.4408 53.78 66.4389 53.7713 66.4317 53.765L55.3226 44.0173C55.3166 44.0118 55.3149 44.0045 55.3089 43.999C54.1891 43.0168 54.1888 41.424 55.308 40.4415C56.4274 39.459 58.2426 39.4587 59.3623 40.4408L70.4395 50.1612C70.9992 50.6523 71.9066 50.6523 72.4665 50.1612C73.0262 49.6701 73.0262 48.8737 72.4665 48.3826L61.3919 38.6641L61.3895 38.6622L58.3509 35.9954C57.6265 35.36 57.3436 34.4338 57.6085 33.5656C57.8734 32.6975 58.6461 32.0192 59.6355 31.7864C60.6249 31.5537 61.6806 31.8018 62.4049 32.4372L62.4221 32.4472L75.6444 44.0481C76.205 44.5349 77.1085 44.533 77.6662 44.0435C78.2239 43.5542 78.2263 42.7613 77.6713 42.2695L64.4428 30.6732L64.4317 30.6586C64.4227 30.6505 64.4114 30.6453 64.4022 30.6374L62.409 28.8763L62.4048 28.8738C61.2865 27.8922 61.2867 26.3011 62.4054 25.3199C63.5242 24.3387 65.3375 24.3388 66.4557 25.3205C66.468 25.3312 66.4848 25.3345 66.4972 25.3448L71.3326 29.5876C71.3904 29.6481 71.4515 29.7039 71.5278 29.771L71.5298 29.7731L71.5312 29.7742L79.7439 36.9682C80.1063 37.2863 80.6347 37.4104 81.1298 37.2935C81.6248 37.1768 82.011 36.8369 82.1427 36.4022C82.2744 35.9676 82.1316 35.5043 81.7681 35.1871L73.5427 27.9858C73.5178 27.9578 73.4896 27.9321 73.4626 27.9057L73.4559 27.8962C72.4231 26.9036 72.4676 25.3726 73.5566 24.4275C74.6891 23.4769 76.4739 23.4769 77.6063 24.4275L82.6666 28.8666C82.6965 28.8928 82.7363 28.9023 82.768 28.9257C82.9177 29.0311 83.0875 29.1121 83.2698 29.1649C83.3103 29.1757 83.3414 29.2001 83.3833 29.208C83.4804 29.2256 83.5794 29.2346 83.6785 29.2346L83.68 29.2349H83.6813C83.8555 29.2335 84.0279 29.204 84.1898 29.1478C84.2343 29.1287 84.2777 29.1074 84.3197 29.0843C84.4346 29.0355 84.5412 28.9733 84.6371 28.8995C84.6543 28.8857 84.6768 28.881 84.6934 28.8666C84.7236 28.8401 84.7346 28.805 84.7614 28.7767C84.8353 28.7011 84.8985 28.6176 84.9492 28.5285C84.9815 28.4716 85.0087 28.4125 85.0302 28.3519C85.0499 28.3146 85.0673 28.2766 85.0824 28.2378C87.4372 18.4704 85.2101 9.99274 78.9726 4.97651ZM82.7425 25.3765L79.6332 22.649C77.3659 20.7494 73.7972 20.7494 71.5297 22.649C70.821 23.2758 70.312 24.0548 70.0533 24.9082L68.4961 23.5419C68.4741 23.5224 68.4444 23.5159 68.4211 23.4981C66.4354 21.7907 63.337 21.5861 61.0826 23.0136C58.8282 24.4411 58.0729 27.0856 59.2938 29.2772C57.3187 29.6075 55.6875 30.8253 54.9996 32.4829C54.3117 34.1405 54.6685 35.9936 55.9391 37.3609C54.9344 37.5741 54.0154 38.0244 53.2815 38.6631C51.0595 40.6197 51.0483 43.7817 53.2565 45.7503C53.2671 45.7603 53.2703 45.7736 53.2815 45.7833L63.3303 54.6007C56.9935 59.4788 50.1918 63.8714 42.9999 67.7302C35.8081 63.8713 29.0064 59.4788 22.6696 54.6007L32.7184 45.7833C32.7296 45.7736 32.7326 45.7603 32.7434 45.7503C34.9516 43.7816 34.9404 40.6197 32.7184 38.6631C31.9838 38.025 31.0648 37.5749 30.0603 37.3613C31.3304 35.9947 31.6876 34.1425 31.0009 32.4852C30.3143 30.8279 28.6849 29.6096 26.711 29.2777C27.7738 27.3577 27.3372 25.0582 25.6226 23.5442C23.3803 21.663 19.8553 21.6417 17.5835 23.4956C17.5584 23.5149 17.5263 23.522 17.5024 23.543L15.9333 24.9198C15.6844 24.0645 15.1803 23.2829 14.4731 22.655C12.2476 20.706 8.6483 20.6933 6.40495 22.6266C6.39336 22.6361 6.37808 22.6389 6.36682 22.6488L3.25738 25.3763C1.96312 17.5135 3.9812 10.838 8.96477 6.83101C13.5215 3.37243 19.6058 1.88921 25.5428 2.78993C32.283 3.77128 38.0362 7.58758 41.7415 13.5374C42.0153 13.9149 42.49 14.1436 42.9999 14.1436C43.5099 14.1436 43.9846 13.915 44.2584 13.5374C47.9639 7.58758 53.7169 3.77143 60.4571 2.78993C66.3939 1.88951 72.4781 3.37258 77.0351 6.83101C82.0187 10.8382 84.0369 17.5136 82.7425 25.3765Z" fill="white"/>
</svg>
