
<svg width="24" height="24" viewBox="0 0 24 24" fill="none" xmlns="http://www.w3.org/2000/svg">
<path d="M11.3329 20.3574C11.333 20.4501 11.3538 20.5416 11.3939 20.6258C11.4341 20.71 11.4926 20.7848 11.5656 20.8451C11.6385 20.9054 11.7241 20.9498 11.8165 20.9753C11.909 21.0007 12.006 21.0066 12.101 20.9925L21.4346 19.6169C21.592 19.5935 21.7355 19.5167 21.8392 19.4002C21.9429 19.2837 21.9999 19.1353 22 18.9818L22 5.01952C21.9999 4.86601 21.9429 4.71758 21.8392 4.60109C21.7355 4.4846 21.592 4.40774 21.4346 4.38441L12.101 3.00747C12.006 2.99338 11.909 2.99927 11.8165 3.02471C11.7241 3.05015 11.6385 3.09455 11.5656 3.15488C11.4926 3.2152 11.4341 3.29001 11.3939 3.37419C11.3538 3.45837 11.333 3.54992 11.3329 3.64258V12.0006H4.43665L5.76604 10.877C5.89117 10.7628 5.96558 10.6063 5.97367 10.4403C5.98177 10.2744 5.92291 10.1119 5.80945 9.98683C5.69599 9.86181 5.53674 9.78399 5.36508 9.76969C5.19341 9.7554 5.02268 9.80574 4.88867 9.91016L2.22723 12.1601C2.15585 12.2204 2.09865 12.2947 2.05946 12.3781C2.02027 12.4615 2 12.5519 2 12.6435C2 12.735 2.02027 12.8255 2.05946 12.9088C2.09865 12.9922 2.15585 13.0665 2.22723 13.1269L4.88867 15.3768C5.02164 15.489 5.19538 15.5456 5.37167 15.5343C5.54796 15.523 5.71236 15.4446 5.82871 15.3164C5.94505 15.1881 6.00381 15.0206 5.99206 14.8506C5.98031 14.6807 5.899 14.5221 5.76604 14.41L4.43665 13.2863L11.3329 13.2863L11.3329 20.3574ZM14.6664 10.3936C14.9316 10.3936 15.186 10.4952 15.3735 10.676C15.5611 10.8568 15.6664 11.1021 15.6664 11.3578C15.6664 11.6135 15.5611 11.8588 15.3735 12.0396C15.186 12.2205 14.9316 12.3221 14.6664 12.3221C14.4012 12.3221 14.1468 12.2205 13.9592 12.0396C13.7717 11.8588 13.6663 11.6135 13.6663 11.3578C13.6663 11.1021 13.7717 10.8568 13.9592 10.676C14.1468 10.4952 14.4012 10.3936 14.6664 10.3936ZM9.33284 4.2867H9.99953V10.715H8.66615V4.92953C8.66615 4.75904 8.73639 4.59553 8.86142 4.47498C8.98645 4.35442 9.15602 4.2867 9.33284 4.2867ZM9.99953 14.572V19.7146H9.33284C9.15602 19.7146 8.98645 19.6469 8.86142 19.5263C8.73639 19.4058 8.66615 19.2422 8.66615 19.0718V14.572H9.99953Z" fill="white"/>
</svg>
