<svg width="32" height="31" viewBox="0 0 32 31" fill="none" xmlns="http://www.w3.org/2000/svg">
<g id="jam:menu">
<path id="Vector" d="M8.33333 8.92688H15C15.3536 8.92688 15.6928 9.06001 15.9428 9.29699C16.1929 9.53397 16.3333 9.85539 16.3333 10.1905C16.3333 10.5257 16.1929 10.8471 15.9428 11.0841C15.6928 11.321 15.3536 11.4542 15 11.4542H8.33333C7.97971 11.4542 7.64057 11.321 7.39052 11.0841C7.14048 10.8471 7 10.5257 7 10.1905C7 9.85539 7.14048 9.53397 7.39052 9.29699C7.64057 9.06001 7.97971 8.92688 8.33333 8.92688ZM17.6667 19.0361H24.3333C24.687 19.0361 25.0261 19.1692 25.2761 19.4062C25.5262 19.6431 25.6667 19.9646 25.6667 20.2997C25.6667 20.6348 25.5262 20.9563 25.2761 21.1932C25.0261 21.4302 24.687 21.5633 24.3333 21.5633H17.6667C17.313 21.5633 16.9739 21.4302 16.7239 21.1932C16.4738 20.9563 16.3333 20.6348 16.3333 20.2997C16.3333 19.9646 16.4738 19.6431 16.7239 19.4062C16.9739 19.1692 17.313 19.0361 17.6667 19.0361ZM8.33333 13.9815H24.3333C24.687 13.9815 25.0261 14.1146 25.2761 14.3516C25.5262 14.5886 25.6667 14.91 25.6667 15.2451C25.6667 15.5803 25.5262 15.9017 25.2761 16.1386C25.0261 16.3756 24.687 16.5088 24.3333 16.5088H8.33333C7.97971 16.5088 7.64057 16.3756 7.39052 16.1386C7.14048 15.9017 7 15.5803 7 15.2451C7 14.91 7.14048 14.5886 7.39052 14.3516C7.64057 14.1146 7.97971 13.9815 8.33333 13.9815Z" fill="#26508E"/>
</g>
</svg>
