<svg width="14" height="14" viewBox="0 0 14 14" fill="none" xmlns="http://www.w3.org/2000/svg">
<path d="M1.29493 1.2997C1.22083 1.37378 1.17578 1.47198 1.16797 1.57646C1.16015 1.68094 1.19009 1.78476 1.25234 1.86903L1.29493 1.91803L3.64809 4.27178C2.50069 5.07598 1.68161 6.26681 1.34101 7.62595C1.31475 7.73784 1.33356 7.85556 1.39339 7.95369C1.45323 8.05181 1.54926 8.12245 1.66075 8.15035C1.77225 8.17824 1.89023 8.16114 1.98922 8.10275C2.08821 8.04435 2.16024 7.94936 2.18976 7.83828C2.49245 6.63195 3.23795 5.58367 4.27809 4.90178L5.33393 5.95762C4.91217 6.39832 4.67977 6.98666 4.6865 7.59662C4.69323 8.20658 4.93855 8.78966 5.36992 9.22095C5.80129 9.65225 6.38441 9.89747 6.99437 9.90409C7.60433 9.91071 8.19263 9.6782 8.63326 9.25637L12.086 12.7097C12.1641 12.788 12.2689 12.8338 12.3794 12.838C12.4898 12.8421 12.5978 12.8043 12.6815 12.7321C12.7652 12.6599 12.8185 12.5587 12.8306 12.4488C12.8428 12.3389 12.8129 12.2285 12.7469 12.1398L12.7043 12.0908L9.13843 8.52428L9.13901 8.52312L5.08484 4.47128L5.08601 4.47012L4.42509 3.81095L1.91326 1.2997C1.83123 1.21777 1.72003 1.17175 1.60409 1.17175C1.48815 1.17175 1.37696 1.21777 1.29493 1.2997ZM6.99993 3.21303C6.41659 3.21303 5.85076 3.29937 5.31468 3.46095L6.03626 4.18195C7.28433 3.93483 8.57964 4.17675 9.65438 4.8577C10.7291 5.53865 11.5011 6.60656 11.8107 7.84062C11.8409 7.95083 11.913 8.04484 12.0117 8.10254C12.1103 8.16025 12.2276 8.17707 12.3385 8.1494C12.4494 8.12174 12.545 8.05179 12.605 7.95452C12.665 7.85724 12.6845 7.74036 12.6594 7.62887C12.3431 6.36738 11.6144 5.24774 10.5891 4.4477C9.5637 3.64767 8.30046 3.21311 6.99993 3.21303ZM7.11368 5.26053L9.33093 7.4772C9.30224 6.89848 9.05942 6.35108 8.64964 5.94142C8.23986 5.53175 7.69241 5.28906 7.11368 5.26053Z" fill="#26508E" stroke="#26508E" stroke-width="0.2"/>
</svg>
