<svg width="27" height="27" viewBox="0 0 27 27" fill="none" xmlns="http://www.w3.org/2000/svg">
<path d="M14 17.4286C14.3978 17.4286 14.7794 17.2781 15.0607 17.0102C15.342 16.7422 15.5 16.3789 15.5 16C15.5 15.6211 15.342 15.2578 15.0607 14.9898C14.7794 14.7219 14.3978 14.5714 14 14.5714C13.6022 14.5714 13.2206 14.7219 12.9393 14.9898C12.658 15.2578 12.5 15.6211 12.5 16C12.5 16.3789 12.658 16.7422 12.9393 17.0102C13.2206 17.2781 13.6022 17.4286 14 17.4286ZM18.5 11C18.8978 11 19.2794 11.1505 19.5607 11.4184C19.842 11.6863 20 12.0497 20 12.4286V19.5714C20 19.9503 19.842 20.3137 19.5607 20.5816C19.2794 20.8495 18.8978 21 18.5 21H9.5C9.10218 21 8.72064 20.8495 8.43934 20.5816C8.15804 20.3137 8 19.9503 8 19.5714V12.4286C8 12.0497 8.15804 11.6863 8.43934 11.4184C8.72064 11.1505 9.10218 11 9.5 11H10.25V9.57143C10.25 8.62423 10.6451 7.71582 11.3483 7.04605C12.0516 6.37627 13.0054 6 14 6C14.4925 6 14.9801 6.09238 15.4351 6.27186C15.89 6.45134 16.3034 6.71441 16.6517 7.04605C16.9999 7.37769 17.2761 7.7714 17.4645 8.2047C17.653 8.63801 17.75 9.10242 17.75 9.57143V11H18.5ZM14 7.42857C13.4033 7.42857 12.831 7.65434 12.409 8.0562C11.9871 8.45806 11.75 9.00311 11.75 9.57143V11H16.25V9.57143C16.25 9.00311 16.0129 8.45806 15.591 8.0562C15.169 7.65434 14.5967 7.42857 14 7.42857Z" fill="#26508E"/>
</svg>
