<svg width="15" height="18" viewBox="0 0 15 18" fill="none" xmlns="http://www.w3.org/2000/svg">
<path d="M0.991667 2.70877C0.391667 2.97284 0 3.56699 0 4.21891V8.09742C0 12.6774 3.2 16.9602 7.5 18C11.8 16.9602 15 12.6774 15 8.09742V4.21891C15 3.56699 14.6083 2.97284 14.0083 2.70877L8.175 0.14235C7.74167 -0.0474499 7.25 -0.0474499 6.825 0.14235L0.991667 2.70877ZM7.5 4.79656C7.95833 4.79656 8.33333 5.16791 8.33333 5.62178C8.33333 6.07564 7.95833 6.44699 7.5 6.44699C7.04167 6.44699 6.66667 6.07564 6.66667 5.62178C6.66667 5.16791 7.04167 4.79656 7.5 4.79656ZM7.5 8.09742C7.95833 8.09742 8.33333 8.46877 8.33333 8.92264V12.2235C8.33333 12.6774 7.95833 13.0487 7.5 13.0487C7.04167 13.0487 6.66667 12.6774 6.66667 12.2235V8.92264C6.66667 8.46877 7.04167 8.09742 7.5 8.09742Z" fill="#26508E"/>
</svg>
