<svg width="27" height="27" viewBox="0 0 27 27" fill="none" xmlns="http://www.w3.org/2000/svg">
<path d="M14 6C15.0609 6 16.0783 6.42143 16.8284 7.17157C17.5786 7.92172 18 8.93913 18 10C18 11.0609 17.5786 12.0783 16.8284 12.8284C16.0783 13.5786 15.0609 14 14 14C12.9391 14 11.9217 13.5786 11.1716 12.8284C10.4214 12.0783 10 11.0609 10 10C10 8.93913 10.4214 7.92172 11.1716 7.17157C11.9217 6.42143 12.9391 6 14 6ZM14 22C14 22 22 22 22 20C22 17.6 18.1 15 14 15C9.9 15 6 17.6 6 20C6 22 14 22 14 22Z" fill="#26508E"/>
</svg>
