<svg width="24" height="24" viewBox="0 0 24 24" fill="none" xmlns="http://www.w3.org/2000/svg">
<path d="M11.5 10.2546C10.6164 10.2546 9.85964 9.94847 9.22964 9.33621C8.59964 8.72396 8.285 7.98731 8.28571 7.12626C8.28571 6.2666 8.60036 5.53064 9.22964 4.91838C9.85893 4.30613 10.6157 4 11.5 4C12.3843 4 13.1411 4.30613 13.7704 4.91838C14.3996 5.53064 14.7143 6.26694 14.7143 7.1273C14.7143 7.98765 14.3996 8.72396 13.7704 9.33621C13.1411 9.94778 12.3843 10.2536 11.5 10.2536M9.625 19.9576C9.31071 19.9576 9.04321 19.8498 8.8225 19.6344C8.60179 19.4204 8.49143 19.1605 8.49143 18.8547C8.49143 18.5489 8.60179 18.2883 8.8225 18.0728C9.04321 17.8588 9.31179 17.7518 9.62821 17.7518H12.4032L11.2814 19.9576H9.625ZM4 21V15.6836C4 15.2388 4.13107 14.8323 4.39321 14.4639C4.65607 14.0956 5.00036 13.8058 5.42607 13.5946C6.37464 13.138 7.35929 12.7877 8.38 12.5438C9.4 12.3005 10.44 12.1789 11.5 12.1789C12.0907 12.1789 12.6789 12.2182 13.2646 12.2967C13.8504 12.3759 14.4229 12.4965 14.9821 12.6584L12.9196 16.7093H9.625C9.01071 16.7093 8.48929 16.9175 8.06071 17.3338C7.63357 17.75 7.42 18.2574 7.42 18.8557C7.42 19.4541 7.63393 19.9607 8.06179 20.3756C8.48893 20.7919 9.01 21 9.625 21H4ZM16.0407 21V12.9837C16.3086 13.0699 16.5686 13.1626 16.8207 13.262C17.0729 13.3621 17.3239 13.4729 17.5739 13.5946C17.9996 13.8058 18.3439 14.096 18.6068 14.465C18.8689 14.8347 19 15.2402 19 15.6815V19.3154C19 19.779 18.8304 20.1754 18.4911 20.5048C18.1525 20.8349 17.7454 21 17.2696 21H16.0407Z" fill="#26508E"/>
</svg>
