<svg width="24" height="24" viewBox="0 0 24 24" fill="none" xmlns="http://www.w3.org/2000/svg">
<path d="M4.40069 3C3.81715 3 3.25751 3.23097 2.84489 3.64211C2.43226 4.05325 2.20045 4.61087 2.20045 5.19231V16.1538C2.20045 16.7353 2.43226 17.2929 2.84489 17.704C3.25751 18.1152 3.81715 18.3462 4.40069 18.3462V18.6428C4.40069 19.2457 4.25181 19.7463 4.01125 20.0591C3.76996 20.3704 3.46559 20.5385 2.93387 20.5385C2.40214 20.5385 2.09777 20.3704 1.85648 20.0591C1.61592 19.747 1.46704 19.245 1.46704 18.6428V15.1264C1.46975 15.0153 1.44702 14.9051 1.40058 14.8041C1.35413 14.7032 1.2852 14.6141 1.199 14.5436C1.11281 14.4732 1.01163 14.4232 0.903163 14.3976C0.794691 14.3719 0.68178 14.3713 0.57301 14.3956C0.40743 14.4326 0.259842 14.5256 0.155396 14.6589C0.050949 14.7921 -0.00389294 14.9574 0.000215105 15.1264V18.6428C0.000215105 19.4935 0.216572 20.309 0.710892 20.9499C1.20521 21.5893 2.0061 22 2.93387 22C3.86163 22 4.66252 21.5893 5.15684 20.9492C5.65116 20.3097 5.86752 19.4935 5.86752 18.6428V18.3462C6.45105 18.3462 7.01069 18.1152 7.42332 17.704C7.83594 17.2929 8.06775 16.7353 8.06775 16.1538V5.19231C8.06775 4.61087 7.83594 4.05325 7.42332 3.64211C7.01069 3.23097 6.45105 3 5.86752 3H4.40069ZM11.0014 3C10.4179 3 9.85822 3.23097 9.4456 3.64211C9.03298 4.05325 8.80117 4.61087 8.80117 5.19231V16.1538C8.80117 16.7353 9.03298 17.2929 9.4456 17.704C9.85822 18.1152 10.4179 18.3462 11.0014 18.3462H16.1353C17.3506 18.3462 19 17.3867 19 10.6731C19 3.9595 17.3506 3 16.1353 3H11.0014ZM11.3681 5.19231H16.502C16.5993 5.19231 16.6925 5.2308 16.7613 5.29933C16.8301 5.36785 16.8687 5.46079 16.8687 5.55769V7.75C16.8687 7.84691 16.8301 7.93984 16.7613 8.00837C16.6925 8.07689 16.5993 8.11538 16.502 8.11538H11.3681C11.2709 8.11538 11.1776 8.07689 11.1088 8.00837C11.04 7.93984 11.0014 7.84691 11.0014 7.75V5.55769C11.0014 5.46079 11.04 5.36785 11.1088 5.29933C11.1776 5.2308 11.2709 5.19231 11.3681 5.19231ZM11.3681 9.57692H12.1015C12.1988 9.57692 12.2921 9.61542 12.3608 9.68394C12.4296 9.75246 12.4682 9.8454 12.4682 9.94231V10.6731C12.4682 10.77 12.4296 10.8629 12.3608 10.9314C12.2921 11 12.1988 11.0385 12.1015 11.0385H11.3681C11.2709 11.0385 11.1776 11 11.1088 10.9314C11.04 10.8629 11.0014 10.77 11.0014 10.6731V9.94231C11.0014 9.8454 11.04 9.75246 11.1088 9.68394C11.1776 9.61542 11.2709 9.57692 11.3681 9.57692ZM13.5683 9.57692H14.3018C14.399 9.57692 14.4923 9.61542 14.5611 9.68394C14.6298 9.75246 14.6685 9.8454 14.6685 9.94231V10.6731C14.6685 10.77 14.6298 10.8629 14.5611 10.9314C14.4923 11 14.399 11.0385 14.3018 11.0385H13.5683C13.4711 11.0385 13.3778 11 13.309 10.9314C13.2403 10.8629 13.2016 10.77 13.2016 10.6731V9.94231C13.2016 9.8454 13.2403 9.75246 13.309 9.68394C13.3778 9.61542 13.4711 9.57692 13.5683 9.57692ZM15.7686 9.57692H16.502C16.5993 9.57692 16.6925 9.61542 16.7613 9.68394C16.8301 9.75246 16.8687 9.8454 16.8687 9.94231V10.6731C16.8687 10.77 16.8301 10.8629 16.7613 10.9314C16.6925 11 16.5993 11.0385 16.502 11.0385H15.7686C15.6713 11.0385 15.5781 11 15.5093 10.9314C15.4405 10.8629 15.4019 10.77 15.4019 10.6731V9.94231C15.4019 9.8454 15.4405 9.75246 15.5093 9.68394C15.5781 9.61542 15.6713 9.57692 15.7686 9.57692ZM11.3681 11.7692H12.1015C12.1988 11.7692 12.2921 11.8077 12.3608 11.8762C12.4296 11.9448 12.4682 12.0377 12.4682 12.1346V12.8654C12.4682 12.9623 12.4296 13.0552 12.3608 13.1238C12.2921 13.1923 12.1988 13.2308 12.1015 13.2308H11.3681C11.2709 13.2308 11.1776 13.1923 11.1088 13.1238C11.04 13.0552 11.0014 12.9623 11.0014 12.8654V12.1346C11.0014 12.0377 11.04 11.9448 11.1088 11.8762C11.1776 11.8077 11.2709 11.7692 11.3681 11.7692ZM13.5683 11.7692H14.3018C14.399 11.7692 14.4923 11.8077 14.5611 11.8762C14.6298 11.9448 14.6685 12.0377 14.6685 12.1346V12.8654C14.6685 12.9623 14.6298 13.0552 14.5611 13.1238C14.4923 13.1923 14.399 13.2308 14.3018 13.2308H13.5683C13.4711 13.2308 13.3778 13.1923 13.309 13.1238C13.2403 13.0552 13.2016 12.9623 13.2016 12.8654V12.1346C13.2016 12.0377 13.2403 11.9448 13.309 11.8762C13.3778 11.8077 13.4711 11.7692 13.5683 11.7692ZM15.7686 11.7692H16.502C16.5993 11.7692 16.6925 11.8077 16.7613 11.8762C16.8301 11.9448 16.8687 12.0377 16.8687 12.1346V12.8654C16.8687 12.9623 16.8301 13.0552 16.7613 13.1238C16.6925 13.1923 16.5993 13.2308 16.502 13.2308H15.7686C15.6713 13.2308 15.5781 13.1923 15.5093 13.1238C15.4405 13.0552 15.4019 12.9623 15.4019 12.8654V12.1346C15.4019 12.0377 15.4405 11.9448 15.5093 11.8762C15.5781 11.8077 15.6713 11.7692 15.7686 11.7692ZM11.3681 13.9615H12.1015C12.1988 13.9615 12.2921 14 12.3608 14.0686C12.4296 14.1371 12.4682 14.23 12.4682 14.3269V15.0577C12.4682 15.1546 12.4296 15.2475 12.3608 15.3161C12.2921 15.3846 12.1988 15.4231 12.1015 15.4231H11.3681C11.2709 15.4231 11.1776 15.3846 11.1088 15.3161C11.04 15.2475 11.0014 15.1546 11.0014 15.0577V14.3269C11.0014 14.23 11.04 14.1371 11.1088 14.0686C11.1776 14 11.2709 13.9615 11.3681 13.9615ZM13.5683 13.9615H14.3018C14.399 13.9615 14.4923 14 14.5611 14.0686C14.6298 14.1371 14.6685 14.23 14.6685 14.3269V15.0577C14.6685 15.1546 14.6298 15.2475 14.5611 15.3161C14.4923 15.3846 14.399 15.4231 14.3018 15.4231H13.5683C13.4711 15.4231 13.3778 15.3846 13.309 15.3161C13.2403 15.2475 13.2016 15.1546 13.2016 15.0577V14.3269C13.2016 14.23 13.2403 14.1371 13.309 14.0686C13.3778 14 13.4711 13.9615 13.5683 13.9615ZM15.7686 13.9615H16.502C16.5993 13.9615 16.6925 14 16.7613 14.0686C16.8301 14.1371 16.8687 14.23 16.8687 14.3269V15.0577C16.8687 15.1546 16.8301 15.2475 16.7613 15.3161C16.6925 15.3846 16.5993 15.4231 16.502 15.4231H15.7686C15.6713 15.4231 15.5781 15.3846 15.5093 15.3161C15.4405 15.2475 15.4019 15.1546 15.4019 15.0577V14.3269C15.4019 14.23 15.4405 14.1371 15.5093 14.0686C15.5781 14 15.6713 13.9615 15.7686 13.9615Z" fill="#26508E"/>
</svg>
