<svg width="24" height="24" viewBox="0 0 24 24" fill="none" xmlns="http://www.w3.org/2000/svg">
<path d="M11.5 12C12.2987 12 13.0795 11.7654 13.7436 11.3259C14.4078 10.8864 14.9254 10.2616 15.2311 9.53073C15.5367 8.79983 15.6167 7.99556 15.4609 7.21964C15.305 6.44372 14.9204 5.73098 14.3556 5.17157C13.7908 4.61216 13.0712 4.2312 12.2879 4.07686C11.5045 3.92252 10.6925 4.00173 9.95455 4.30448C9.21662 4.60723 8.58589 5.11992 8.14214 5.77772C7.69839 6.43552 7.46154 7.20888 7.46154 8C7.46154 9.06087 7.88702 10.0783 8.64438 10.8284C9.40174 11.5786 10.4289 12 11.5 12ZM11.5 13.1429C8.99687 13.1429 4 14.6743 4 17.7143V20H19V17.7143C19 14.6743 14.0031 13.1429 11.5 13.1429Z" fill="#26508E"/>
</svg>
