<svg width="18" height="18" viewBox="0 0 18 18" fill="none" xmlns="http://www.w3.org/2000/svg">
<path d="M8.99955 0L9.57738 0.0045001L10.1318 0.0198001L10.4009 0.0315001L10.922 0.0621L11.4198 0.1035C15.6383 0.513 17.4051 2.2032 17.8695 6.3189L17.8965 6.5799L17.9379 7.0776L17.9748 7.7319L17.9802 7.8669L17.9955 8.4222L18 9L17.9955 9.5778L17.9802 10.1322L17.9685 10.4013L17.9379 10.9224L17.8965 11.4201C17.487 15.6384 15.7967 17.4051 11.6808 17.8695L11.4198 17.8965L10.922 17.9379L10.2677 17.9748L10.1327 17.9802L9.57738 17.9955L8.99955 18L8.42172 17.9955L7.86729 17.9802L7.59818 17.9685L7.07705 17.9379L6.57933 17.8965C2.36082 17.487 0.59403 15.7968 0.129607 11.6811L0.102605 11.4201L0.0612031 10.9224L0.0243014 10.2681L0.0189011 10.1331L0.00360035 9.5778L0 9.2916V8.7084L0.00360035 8.4222L0.0189011 7.8678L0.0306017 7.5987L0.0612031 7.0776L0.102605 6.5799C0.512126 2.3616 2.20241 0.5949 6.31832 0.1305L6.57933 0.1035L7.07705 0.0621L7.73139 0.0252001L7.86639 0.0198001L8.42172 0.0045001C8.61073 0.0018001 8.80334 0 8.99955 0ZM8.99955 11.7C8.7791 11.7 8.56632 11.781 8.40158 11.9274C8.23685 12.0739 8.1316 12.2758 8.10581 12.4947L8.09951 12.6L8.10581 12.7143C8.13183 12.933 8.23717 13.1346 8.40189 13.2809C8.5666 13.4272 8.77925 13.508 8.99955 13.508C9.21985 13.508 9.43249 13.4272 9.59721 13.2809C9.76193 13.1346 9.86727 12.933 9.8933 12.7143L9.8996 12.609L9.8933 12.4947C9.8675 12.2758 9.76225 12.0739 9.59751 11.9274C9.43277 11.781 9.22 11.7 8.99955 11.7ZM10.2308 5.6943C9.69203 5.41887 9.07594 5.33371 8.48264 5.45266C7.88935 5.57161 7.3537 5.88767 6.96275 6.3495C6.81368 6.5241 6.73698 6.74907 6.74834 6.97836C6.75969 7.20765 6.85825 7.42394 7.02383 7.58296C7.18942 7.74198 7.40951 7.83172 7.63909 7.83381C7.86867 7.8359 8.09036 7.75018 8.25881 7.5942L8.41272 7.4322C8.5455 7.31032 8.71244 7.23205 8.89106 7.20791C9.06967 7.18378 9.2514 7.21494 9.41177 7.2972C9.58466 7.38469 9.72469 7.52564 9.81105 7.69908C9.89741 7.87253 9.92549 8.06921 9.89111 8.25989C9.85674 8.45057 9.76174 8.62507 9.62024 8.75744C9.47875 8.88981 9.29831 8.97299 9.10576 8.9946L8.89694 9.0054C8.66803 9.03059 8.45747 9.14256 8.30861 9.31828C8.15976 9.494 8.08393 9.72009 8.09673 9.95002C8.10953 10.18 8.20999 10.3962 8.37743 10.5543C8.54487 10.7125 8.76655 10.8004 8.99685 10.8C9.60404 10.8018 10.1941 10.5989 10.6718 10.2241C11.1495 9.84932 11.4869 9.32444 11.6295 8.73426C11.7722 8.14409 11.7117 7.52307 11.4579 6.97148C11.2041 6.4199 10.7718 5.96995 10.2308 5.6943Z" fill="#26508E"/>
</svg>
