<svg width="25" height="25" viewBox="0 0 25 25" fill="none" xmlns="http://www.w3.org/2000/svg">
<g clip-path="url(#clip0_738_2943)">
<path d="M0.533508 12.3506C0.532922 14.4511 1.08605 16.5021 2.13781 18.3098L0.432922 24.4864L6.80324 22.829C8.56518 23.7808 10.5393 24.2795 12.5454 24.2796H12.5507C19.1733 24.2796 24.5642 18.9324 24.567 12.36C24.5683 9.17525 23.3194 6.18048 21.0505 3.92738C18.7819 1.67447 15.7649 0.433094 12.5502 0.431641C5.92687 0.431641 0.53634 5.77854 0.533606 12.3506" fill="url(#paint0_linear_738_2943)"/>
<path d="M0.104492 12.3465C0.103809 14.5226 0.676758 16.6469 1.76602 18.5194L0 24.9173L6.59873 23.2006C8.41689 24.1842 10.464 24.7028 12.547 24.7036H12.5523C19.4125 24.7036 24.9971 19.1641 25 12.3564C25.0012 9.05717 23.7074 5.95475 21.3574 3.62093C19.0071 1.2874 15.8821 0.00135659 12.5523 0C5.69101 0 0.107227 5.53876 0.104492 12.3465ZM4.03428 18.1969L3.78789 17.8088C2.75215 16.1747 2.20547 14.2863 2.20625 12.3473C2.2084 6.68886 6.84941 2.08527 12.5563 2.08527C15.3199 2.08643 17.9172 3.15543 19.8707 5.09496C21.8241 7.03469 22.899 9.61318 22.8983 12.3556C22.8958 18.0141 18.2547 22.6182 12.5523 22.6182H12.5482C10.6915 22.6173 8.87051 22.1225 7.28242 21.1875L6.90449 20.9651L2.98867 21.9838L4.03428 18.1969Z" fill="url(#paint1_linear_738_2943)"/>
<path d="M9.44122 7.18495C9.20822 6.67109 8.963 6.66072 8.74142 6.65171C8.55997 6.64396 8.35255 6.64454 8.14532 6.64454C7.9379 6.64454 7.60089 6.72196 7.31603 7.03059C7.03087 7.3395 6.22736 8.08601 6.22736 9.60433C6.22736 11.1227 7.34191 12.5901 7.49728 12.7962C7.65284 13.0019 9.64894 16.2174 12.8103 17.4544C15.4376 18.4824 15.9723 18.278 16.5425 18.2264C17.1128 18.1751 18.3827 17.4801 18.6418 16.7595C18.9011 16.0389 18.9011 15.4213 18.8234 15.2922C18.7456 15.1636 18.5382 15.0864 18.2272 14.9321C17.916 14.7778 16.3869 14.0312 16.1019 13.9282C15.8167 13.8253 15.6094 13.7739 15.402 14.0829C15.1945 14.3914 14.5989 15.0864 14.4174 15.2922C14.236 15.4985 14.0545 15.5242 13.7436 15.3698C13.4323 15.215 12.4307 14.8895 11.2423 13.8382C10.3177 13.0202 9.69347 12.01 9.51202 11.701C9.33058 11.3925 9.49259 11.2253 9.64855 11.0715C9.78829 10.9332 9.95968 10.7111 10.1153 10.531C10.2704 10.3507 10.3222 10.2222 10.4259 10.0163C10.5297 9.81034 10.4777 9.6301 10.4001 9.47574C10.3222 9.32138 9.71779 7.79512 9.44122 7.18495Z" fill="white"/>
</g>
<defs>
<linearGradient id="paint0_linear_738_2943" x1="1207.14" y1="2405.91" x2="1207.14" y2="0.431641" gradientUnits="userSpaceOnUse">
<stop stop-color="#1FAF38"/>
<stop offset="1" stop-color="#60D669"/>
</linearGradient>
<linearGradient id="paint1_linear_738_2943" x1="1250" y1="2491.73" x2="1250" y2="0" gradientUnits="userSpaceOnUse">
<stop stop-color="#F9F9F9"/>
<stop offset="1" stop-color="white"/>
</linearGradient>
<clipPath id="clip0_738_2943">
<rect width="25" height="25" fill="white"/>
</clipPath>
</defs>
</svg>
